<svg width="1532" height="803" viewBox="0 0 1532 803" fill="none" xmlns="http://www.w3.org/2000/svg">
<path d="M287 49.5C157.244 62.6319 -31 151.5 -31 151.5C-31 151.5 -267.92 714.136 -31 784C91.3838 820.089 159.783 718.797 287 709C486.206 693.659 593.109 817.654 791.5 794C908.5 780.05 963.953 722.551 1081 709C1230.97 691.638 1325.46 805.384 1465.5 749C1545.85 716.647 1641.5 614 1641.5 614V10C1641.5 10 1453.81 114.006 1321.5 124.5C1209.79 133.36 1149.48 87.814 1037.5 83.5C902.344 78.2929 827.716 117.285 692.5 114C532.199 110.105 446.533 33.3545 287 49.5Z" fill="#E683FF" stroke="black" stroke-width="11"/>
</svg>
